<?xml version="1.0" encoding="utf-8"?>
<!-- Generator: Adobe Illustrator 23.0.1, SVG Export Plug-In . SVG Version: 6.00 Build 0)  -->
<svg version="1.1" id="Layer_1" xmlns="http://www.w3.org/2000/svg" xmlns:xlink="http://www.w3.org/1999/xlink" x="0px" y="0px"
	 viewBox="0 0 512 512" style="enable-background:new 0 0 512 512;" xml:space="preserve">
<style type="text/css">
	.st0{fill:#3B2E61;}
	.st1{fill:#B90000;}
</style>
<g>
	<path class="st0" d="M331.1,397.9c-7.8,9.1-15.7,18.1-23.4,27.4l-0.1-0.1c0.8-2.8,1.6-5.6,2.3-8.7h-11.6c-1.9,0-4,0-5.8,0
		c-1.9,0-3.8,0-5.7,0c0.5-2.3,1.2-4.3,1.8-6.5h23.3c1.2-4.1,2.3-8,3.5-12.2h-41.8c-3,10.1-5.7,20.2-8.7,30.4h59.9
		c5.3-6.1,10.5-12,15.5-18h10.1c1.4,6.1,2.8,12,4.3,18h17.8c-2.3-10.1-4.7-20.2-7.2-30.3H331.1L331.1,397.9z M86.5,423.1
		c-0.1,0-0.3,0-0.3,0c-1.9-8.4-3.8-16.8-5.7-25.2H46c-3.2,3.6-6.5,7.4-10,11.3h29.6c1.7,6.5,3.4,12.8,4.9,18.9h31.1
		c3-10.1,5.7-20.1,8.7-30.3H93.8C91.3,406.3,88.8,414.7,86.5,423.1z M111.6,428h15.5c1.8-6,3.5-12,5.2-17.9H150
		c-1.8,6.1-3.4,12-5.2,17.9h15.7c1.2-4.4,2.5-8.8,3.5-13.2c0.4-1.8,0-3.4-0.8-4.9c-0.3-0.8-0.9-1.3-1.3-1.9c4.1-2.3,7-5.6,8.5-10.1
		h-50.6C117.3,408,114.3,417.9,111.6,428z M468.2,410c1.2-4.1,2.3-8,3.5-12.2h-41.5c-3,10.1-5.7,20.1-8.7,30.3H463
		c1-3.9,2.2-7.6,3.2-11.5h-11.8c-1.9,0-3.9,0-5.7,0c-1.9,0-3.8,0-5.8,0c0.6-2.2,1.2-4.3,1.8-6.5H468.2L468.2,410z M217.3,397.9
		c-3,10.1-5.7,20.1-8.7,30.4h15.5c1.8-6,3.5-12,5.3-18c0.8,0,1.3,0,1.8,0c6.3,0,12.4,0,18.8,0c3,0,5.7-0.6,8.4-1.8
		c4.5-2.2,7.6-5.7,9.4-10.5h-50.5v-0.1H217.3z M394.7,397.9h-16.3c-0.1,0.1-0.1,0.1-0.1,0.3c-1.4,5.2-3.1,10.2-4.4,15.5
		c-0.6,2.5-0.6,4.8,0.3,7.4c1.8,4.4,5.8,7.1,10.9,7.4c8.4,0,16.7,0,25.1,0c0.3,0,0.8,0,1.2-0.1c1.2-3.9,2.2-7.6,3.4-11.8h-25.2
		C391.2,410.2,393,404,394.7,397.9z"/>
	<path class="st1" d="M167.9,383.9c-1.9-1.2-3.8-1.6-6.1-1.6c-12,0-23.9,0-36,0c-0.4,0-0.9,0-1.3,0c-2.2,3.6-4.4,7.1-6.6,11h54
		C172.8,390.2,170.6,385.7,167.9,383.9z M259,382.2c-11.9,0-23.9,0-35.8,0c-0.4,0-0.9,0-1.3,0c-2.2,3.6-4.3,7.4-6.6,11.1H269
		c0.5-3.1-0.3-5.7-2.3-8C264.7,383,262.1,382.2,259,382.2z M271.4,393.5h45c1-3.6,2.1-7.4,3.2-11H278
		C275.8,386,273.6,389.6,271.4,393.5z M434.5,382.2c-2.2,3.6-4.4,7.4-6.6,11.1h45c0.9-3.6,2.2-7.1,3.1-11.1H434.5z M394.1,382.2
		c-2.3,0-4.5,0.5-6.7,1.6c-4.1,2.1-6.5,5.3-7.8,9.7H421c2.2-3.6,4.4-7.4,6.6-11.1c-0.4,0-0.6-0.1-0.9-0.1
		C416.1,382.2,405.1,382.2,394.1,382.2z M344.3,382.2c-3.1,3.6-6.2,7.1-9.6,11.1h29.6c-0.9-3.9-1.8-7.5-2.6-11.1H344.3z M59.4,382.2
		c-3.2,3.6-6.3,7.1-9.7,11c3.5,0.4,28.5,0.1,29.5-0.1c-0.9-3.5-1.6-7.1-2.5-10.9H59.4z M95,393.5h16.6c1-3.6,2.1-7.4,3.2-11H98
		C97.1,386,96,389.6,95,393.5z"/>
	<g>
		<path class="st1" d="M339.8,138.6c-7.5-9.8-16.9-17.3-26.6-24.7c-20.4-15.5-42.9-25.6-68.6-29.2c-12.5-1.6-25.1-1.4-37.5,0.2
			c-12.5,1.9-24.8,5.5-36.6,10.2c-9.7,3.8-18.9,8.7-27.2,15.1c-11.9,9.1-21.3,20.3-29.3,32.8c-9.8,15.6-16.9,32.4-19.8,50.8
			c-0.5,4-1.3,8-2,12.2c0,5.3,0,10.6,0,15.8c0.2,1.1,0.6,2.2,0.8,3.3c0.6,3.4,0.8,7.2,1.4,10.6c2.4,12.2,6.7,23.7,13.1,34.4
			c0.5,0.9,1.3,1.4,1.9,2.2c-0.3-0.8-0.6-1.6-0.9-2.4c-5.6-12.8-9.7-26.1-10.6-39.8c-1.1-17.3,1.7-34,8.4-49.8
			c7.6-17.8,18.4-33.7,32.8-46.8c8.6-7.8,17.6-15,28.2-19.8c25.1-12,51.5-16.1,79-11.7c9.1,1.4,18.1,3.6,26.7,7.3
			c20.9,8.9,38.7,22.4,53.7,39.5c0.6,0.8,1.1,1.4,1.6,2.4c-0.2,0.2-0.3,0.2-0.5,0.3l15.1-8.4C341.8,141.3,340.7,140,339.8,138.6z"/>
		<path class="st0" d="M419,121.5c-26.6,3.1-52,9.5-75.9,21.4l0,0l-15.1,8.4c-0.9,0.8-1.9,1.4-2.9,2.2c-6.9,5.3-12.8,11.4-18.1,18.2
			c-10,12.4-18,26.1-25.5,40.3c-1.4,2.5-2.8,5.3-4.2,7.8c-1.7,2.9-4.2,4-7.3,3.1c-2.5-0.8-5.1-1.4-7.3-2.8
			c-25.3-14.5-52-17.6-79.9-9.8c-13.6,3.8-27,8.6-40,14.2c-11.1,4.7-21.7,10.3-30.6,18.7c-0.5,0.6-1.1,1.3-1.4,1.7
			c14.7-1.4,29.5-3.3,44.2-4.4c13.6-1.1,27.5-0.9,40.9,1.7c7.8,1.4,15.5,3.8,22.2,8.7c2,1.4,4,3.1,5.5,5.6
			c-5.8,1.4-11.1,2.8-16.6,4.2c-7.2,1.9-14.4,3.6-21.5,5.6c-3.8,1.1-6.9,3.1-9.7,6.4c0.9,1.4,1.6,2.5,2.5,3.6
			c3.1,3.6,7.3,5.5,11.7,6.9c8,2.8,16.4,4.4,24.8,5.5c2.5,0.3,5.1,0.6,8,0.9c-0.3-1.9-0.8-3.3-0.9-4.7c-0.8-5.3,1.1-8.4,6.2-9.8
			c3.1-0.8,6.2-1.3,9.5-1.6c7.5-0.8,14.7-0.9,22.2-2c13.6-2,25.6-7.5,35.5-17.3c7.3-7.3,14.4-14.7,21.4-22c1.1-1.1,2.4-2.2,3.4-3.3
			c2.4,1.1,4.5,2,7.3,3.3c0-5.3-0.2-9.8-2.4-14.2c-0.5-0.9-1.4-1.9-2.2-2.5c-2.5-2.5-5.8-2.9-9.1-2.9l0,0l-0.2,0.2v-0.2l0,0
			c0-0.6,0-1.1,0.2-1.7c2.5-6,5.1-12,8-17.8c3.4-6.7,8.6-12.4,14.4-16.9c1.9-0.2,3.4-0.3,5.3-0.6c0,0.2,0.2,0.3,0.2,0.6
			c1.6-1.1,3.3-2.8,4-6.1c0,0,2.8,4.5,9.2,4.5c1.1,0,2.2-0.2,2.9-0.6l0,0c1.7-1.9,3.3-3.6,5.1-5.6c0-0.2,0-0.2,0-0.2s0,0,0,0.2
			c0.2-0.2,0.3-0.5,0.8-0.8c0.3,0.2,1.1,0.6,1.9,0.8c0.8,0.2,1.4,0.2,2.4,0.3c1.1-1.3,2.2-2.5,3.4-4.2c4,0.6,5.1-2.9,6.9-5.5
			c4.7,2.5,6.7-1.1,8.9-3.6c1.9-0.2,3.4-0.3,5-0.3c0.9-1.7,1.9-3.1,2.8-5c4.7-1.3,5.1-5.3,4.7-9.2c1.1-0.6,2-1.1,3.3-1.6
			c0-1.7,0-3.4,0-5.3c2.2,0.3,4.2,0.8,6.1,1.1c4.7,0.8,10.9-4.7,10.8-9.7C419.9,123.6,419.4,122.8,419,121.5z"/>
		<path class="st1" d="M346,169.7c-0.9,3.3-2.4,5.1-4,6.1c0.6,1.9,1.3,3.4,1.9,5.3c2.8,8.9,5.8,17.8,5.8,27.3
			c0.2,6.6,0,12.9-0.2,19.5c-0.6,15-3.9,29.5-9.5,43.3c-10,24.2-27.2,42.2-49.7,55.1c-13.6,7.8-28.2,12.9-43.3,16.9
			c-1.1,0.3-2.2,0.9-3.4,1.3c3.9-0.8,7.6-1.1,11.3-2c22.8-5.5,43.7-14.5,62-29.3c18.4-15,31.4-33.7,38.7-56.2
			c3.4-10.6,5.5-21.3,6.4-32.2c0.9-10.6,1.1-21.3-0.2-31.9c-0.8-6.6-2.5-12.9-3.6-19.1c-0.9,0.3-1.9,0.6-2.9,0.6
			C348.7,174.2,346,169.7,346,169.7z"/>
	</g>
</g>
</svg>
